<?xml version="1.0" encoding="UTF-8" standalone="no"?>
<svg
   xmlns:dc="http://purl.org/dc/elements/1.1/"
   xmlns:cc="http://creativecommons.org/ns#"
   xmlns:rdf="http://www.w3.org/1999/02/22-rdf-syntax-ns#"
   xmlns:svg="http://www.w3.org/2000/svg"
   xmlns="http://www.w3.org/2000/svg"
   xmlns:sodipodi="http://sodipodi.sourceforge.net/DTD/sodipodi-0.dtd"
   xmlns:inkscape="http://www.inkscape.org/namespaces/inkscape"
   id="svg20752"
   version="1.1"
   viewBox="0 0 169.31625 123.20853"
   height="123.20853mm"
   width="169.31625mm"
   sodipodi:docname="cic.svg"
   inkscape:version="0.92.3 (2405546, 2018-03-11)">
  <sodipodi:namedview
     pagecolor="#ffffff"
     bordercolor="#666666"
     borderopacity="1"
     objecttolerance="10"
     gridtolerance="10"
     guidetolerance="10"
     inkscape:pageopacity="0"
     inkscape:pageshadow="2"
     inkscape:window-width="1440"
     inkscape:window-height="1051"
     id="namedview40"
     showgrid="false"
     fit-margin-top="0"
     fit-margin-left="0"
     fit-margin-right="0"
     fit-margin-bottom="0"
     inkscape:zoom="0.86114819"
     inkscape:cx="503.89187"
     inkscape:cy="34.256637"
     inkscape:window-x="0"
     inkscape:window-y="0"
     inkscape:window-maximized="1"
     inkscape:current-layer="svg20752" />
  <defs
     id="defs20746" />
  <metadata
     id="metadata20749">
    <rdf:RDF>
      <cc:Work
         rdf:about="">
        <dc:format>image/svg+xml</dc:format>
        <dc:type
           rdf:resource="http://purl.org/dc/dcmitype/StillImage" />
        <dc:title></dc:title>
      </cc:Work>
    </rdf:RDF>
  </metadata>
  <g
     transform="translate(72.167873,-34.368948)"
     style="display:none"
     id="layer2">
    <rect
       ry="5.915607"
       y="102.96232"
       x="44.901279"
       height="85.793518"
       width="103.16604"
       id="rect21776"
       style="opacity:0.88999999;fill:#000000;fill-opacity:1;stroke:#000000;stroke-width:1.14300001;stroke-miterlimit:4;stroke-dasharray:none;stroke-opacity:0.07053941" />
  </g>
  <g
     style="display:inline"
     transform="matrix(6.7967956,0,0,6.7967956,-490.9815,-947.81332)"
     id="layer1">
    <g
       id="g5506"
       transform="matrix(0.03858543,0,0,0.03858543,69.740004,123.91926)"
       style="display:inline">
      <g
         id="g5430"
         style="fill:none;fill-opacity:1;stroke:#000000;stroke-width:0.89999998;stroke-miterlimit:4;stroke-dasharray:none;stroke-opacity:0">
        <path
           id="path5327"
           d="m 479.03034,871.52517 c -69.12129,-0.2838 -99.4569,-0.6829 -102.70617,-1.3513 -3.51756,-0.7237 -12.84852,-3.4818 -18.19383,-5.3779 -26.20155,-9.29439 -53.66734,-24.62373 -73.35,-40.93848 -7.77175,-6.4419 -15.10785,-14.32323 -25.83416,-27.75411 -10.51184,-13.16235 -17.73026,-23.30379 -21.08629,-29.625 l -1.71221,-3.225 h -85.30157 c -77.368499,0 -85.318446,-0.0439 -85.482973,-0.47271 -0.169203,-0.44094 -0.27903,-286.63182 -0.11006,-286.79938 0.0425,-0.0421 82.899763,-0.12191 184.127263,-0.17726 142.03239,-0.0777 186.50049,-0.0158 194.78394,0.27088 5.90367,0.20435 11.06541,0.45472 11.4705,0.55639 1.88103,0.47211 2.00133,-1.76877 2.15589,-40.15292 l 0.135,-33.525 82.25235,-10e-6 82.25232,-1e-5 0.003,15.07501 c 0.003,8.29126 0.17073,22.83751 0.37533,32.32501 1.26597,58.70693 1.98825,182.50117 1.27692,218.85784 -0.1824,9.32235 -0.44013,15.52986 -0.75981,18.3 -1.47918,12.81786 -5.48961,23.65517 -12.37551,33.44216 -2.50161,3.55554 -9.50604,10.63248 -13.04526,13.18029 -1.44375,1.03932 -2.625,1.99392 -2.625,2.1213 0,1.03614 8.16525,1.22091 61.875,1.40013 l 52.725,0.17595 v 67.01118 67.01114 l -87.675,-0.05 c -48.22125,-0.028 -112.65,-0.1527 -143.175,-0.278 z m 227.25,-67.47269 v -60.6009 l -49.2492,0.0759 -49.24917,0.0759 -4.22583,8.00463 c -2.32419,4.40256 -5.03457,9.30489 -6.02307,10.89408 -9.42423,15.1512 -26.53659,31.37973 -43.80213,41.5398 -3.06054,1.80102 -15.80361,8.22711 -20.55105,10.3635 -13.44276,6.04941 -23.03175,8.50749 -36.92499,9.46551 -7.45236,0.5139 -33.83541,0.21051 -38.37456,-0.44127 -4.82562,-0.69291 -9.26655,-1.79472 -14.8047,-3.67305 -28.86072,-9.78852 -51.50655,-25.64124 -69.35874,-48.5532 -13.1614,-16.89162 -23.98238,-40.29783 -28.15486,-60.9 -3.63891,-17.96767 -3.77097,-41.65974 -0.34518,-61.92791 4.6704,-27.63165 16.41233,-52.48846 34.37629,-72.77209 3.53472,-3.99116 11.18847,-11.52111 14.68719,-14.44966 13.07628,-10.94526 37.29405,-23.55144 54.91647,-28.5859 7.84329,-2.24072 16.85502,-3.11055 32.38353,-3.12572 21.7074,-0.0212 30.82803,1.46346 46.2,7.52052 28.18956,11.1076 54.48246,32.51755 68.63775,55.89076 7.63338,12.60425 17.0664,35.01544 18.81453,44.7 0.28293,1.5675 0.56949,3.15375 0.63678,3.525 0.33003,1.82059 0.63555,0.19777 0.81384,-4.32291 0.35769,-9.06994 0.47487,-8.24198 -1.93512,-13.67473 -1.17273,-2.64363 -2.61087,-5.43002 -3.19587,-6.19198 -1.54146,-2.00774 -5.00382,-9.25599 -5.75985,-12.05793 -0.91233,-3.38114 -3.15951,-8.50065 -4.66485,-10.62745 -0.70071,-0.99 -2.79225,-4.42654 -4.64784,-7.63675 -17.24445,-29.83319 -35.6286,-51.4072 -57.87078,-67.91202 -17.41464,-12.92253 -36.80718,-22.24224 -60.36753,-29.01154 -7.48275,-2.14992 -10.43997,-3.21604 -13.65372,-4.92234 -5.14167,-2.72993 -7.93266,-3.14664 -27.55734,-4.11454 -8.50266,-0.41936 -43.94187,-0.53341 -47.88615,-0.15411 -2.50425,0.24082 -2.62971,0.28986 -3.96234,1.54871 -1.73964,1.64332 -3.01122,2.11101 -11.31459,4.16152 -10.55327,2.60613 -21.39704,6.33732 -31.37723,10.79646 -4.71673,2.10744 -26.50582,13.06435 -27.93749,14.04872 -0.70694,0.48607 -1.46639,1.32994 -1.69994,1.8889 -0.49322,1.18044 -1.38381,1.81282 -2.93608,2.08482 -1.56613,0.27442 -6.32644,3.50763 -12.79965,8.69355 -7.15961,5.73581 -9.19947,7.16118 -12.55869,8.7755 -2.38648,1.14685 -3.25318,1.79462 -6.22951,4.6559 -7.92759,7.62112 -19.59692,21.66315 -26.17432,31.49627 -7.55165,11.2896 -17.89647,31.54167 -21.4263,41.94631 -0.47667,1.40505 -1.7486,6.87464 -2.82651,12.15464 -2.26181,11.07922 -3.53053,16.79071 -5.36455,24.15 -1.22505,4.91571 -1.37017,5.95349 -2.27911,16.29825 l -0.97074,11.04826 0.51501,4.25174 c 3.12739,25.81839 7.7551,47.20062 13.22411,61.10175 0.61669,1.5675 2.31439,5.3475 3.77265,8.4 1.57452,3.29583 2.97013,6.70755 3.43614,8.4 1.09609,3.98076 2.01763,6.11082 4.32133,9.98847 12.16865,20.48256 42.93797,56.3442 49.49002,57.68061 1.01387,0.20679 4.78425,1.99365 7.08394,3.35721 0.99,0.58701 5.2425,3.32292 9.45,6.07983 20.00354,13.107 31.11408,18.67662 50.18804,25.15887 7.32202,2.48835 13.41235,4.24941 18.21262,5.26623 l 3.44934,0.73067 161.925,0.019 161.925,0.019 v -60.60089 z m -209.38482,14.59413 c 8.23488,-0.93711 12.88893,-1.92714 20.23482,-4.30452 16.23849,-5.25534 33.10842,-14.09574 47.4,-24.83925 16.94493,-12.73809 28.77759,-26.655 33.11532,-38.94837 1.04235,-2.95404 1.19355,-4.53756 0.46014,-4.81899 -2.09805,-0.80511 -8.80896,1.54494 -22.70454,7.95066 -11.86662,5.47044 -14.49114,6.46935 -19.63098,7.47162 -6.55842,1.27887 -26.94441,1.35432 -33.98994,0.12579 -4.05786,-0.70758 -7.54992,-1.93863 -13.05,-4.60047 -7.47663,-3.61842 -13.09812,-7.19187 -18.8679,-11.99391 -25.6143,-21.31818 -36.89874,-57.48168 -28.53861,-91.45836 3.91548,-15.91308 11.60469,-29.65748 22.78473,-40.72743 6.87714,-6.80943 13.54011,-11.50206 22.82178,-16.07302 8.80746,-4.33743 12.81126,-5.41613 22.34133,-6.01916 6.50748,-0.41178 20.62674,-0.14833 25.91706,0.48357 14.66913,1.75214 22.41039,5.52137 37.39632,18.20826 5.98956,5.07069 8.80782,7.24566 8.92935,6.89118 0.24597,-0.71749 -7.11183,-16.08706 -10.00095,-20.89083 -8.5863,-14.27646 -22.97103,-29.05959 -37.93311,-38.98372 -5.76381,-3.82305 -9.36123,-5.83056 -15.92208,-8.88518 -14.54103,-6.77005 -25.77036,-10.03789 -39.72792,-11.56116 -6.77253,-0.73912 -23.88819,-0.75163 -30.45,-0.0223 -26.26614,2.91961 -47.22036,11.57708 -67.00815,27.68515 -4.33374,3.52785 -14.79402,13.87343 -18.92466,18.71717 -19.62031,23.00751 -29.24753,46.56525 -32.12105,78.6 -1.0432,11.62986 -0.90756,28.01874 0.32277,39 3.43587,30.66672 15.34031,54.75093 38.98109,78.86382 17.48151,17.83062 30.89604,27.01581 49.62693,33.98058 9.8199,3.65136 19.09953,5.68422 29.87307,6.5442 5.10606,0.40758 23.88522,0.14856 28.66518,-0.39537 z M 226.55681,756.9484 c 4.80634,-0.29232 6.99949,-0.64719 7.73763,-1.25205 0.27607,-0.2262 0.0359,-0.95178 -0.9932,-3.0009 -7.48863,-14.91075 -14.48652,-42.77502 -16.29713,-64.89207 -0.80526,-9.83655 -0.62623,-19.06752 0.38414,-19.80632 0.68565,-0.50136 1.70145,-11.65718 1.47635,-16.21371 -0.33684,-6.81831 1.66861,-19.16363 5.28435,-32.52997 0.6472,-2.3925 1.1321,-4.39568 1.07754,-4.45152 -0.14147,-0.14479 -137.233139,0.82538 -147.071149,1.04079 l -8.175,0.179 v 70.31586 70.31587 l 18.075,0.0431 c 9.94125,0.0237 29.144999,0.13197 42.674999,0.2406 40.93225,0.32862 90.51276,0.3345 95.82647,0.0114 z m 318.71194,-0.13776 c 4.1343,-0.55029 8.78952,-1.79667 15.29568,-4.09524 10.83072,-3.82638 16.71957,-6.43302 18.88401,-8.35881 l 1.2819,-1.14054 -1.35,-0.17214 c -3.24036,-0.41313 -8.47905,-0.54801 -8.67963,-0.2235 -0.28974,0.46884 -17.29245,-0.42027 -22.52037,-1.17759 -18.21909,-2.63931 -29.69325,-11.47218 -38.95707,-29.98944 -3.9261,-7.84779 -5.87187,-13.89631 -7.14168,-22.2 -0.73926,-4.83436 -0.74223,-15.33696 -0.006,-20.1 1.92057,-12.41932 6.18003,-21.71063 13.06542,-28.5 3.52131,-3.47219 5.38728,-4.71331 9.29079,-6.17953 4.36512,-1.63959 7.90368,-2.2474 14.14818,-2.43018 10.47084,-0.30648 17.88405,1.59284 23.07363,5.91167 5.41884,4.50959 11.30583,13.66681 14.25945,22.18053 1.14159,3.29063 2.1639,7.99292 3.02034,13.89251 l 0.51171,3.525 h 19.20729 19.20729 l -0.15954,-8.775 c -0.11274,-6.20076 -0.30261,-9.5549 -0.64722,-11.43351 -0.55323,-3.01569 -0.74316,-3.45442 -2.24436,-5.18453 -1.39887,-1.61214 -4.18929,-6.12173 -7.75323,-12.52986 -5.4069,-9.72189 -9.08085,-14.66321 -16.09068,-21.64121 -5.16171,-5.13829 -8.04207,-7.52322 -13.38468,-11.08249 -17.58999,-11.71853 -34.24905,-14.87523 -52.9947,-10.04187 -16.1763,4.17088 -32.00145,14.82511 -42.35946,28.51834 -7.47882,9.88701 -14.23002,25.79838 -16.72593,39.42013 -0.76524,4.17637 -0.92112,15.20287 -0.28671,20.28001 2.80959,22.48463 15.08403,43.68182 33.25854,57.43541 7.6908,5.82 16.78476,10.15827 26.06004,12.43191 8.01273,1.96413 14.53092,2.48589 20.73663,1.65993 z m 35.96622,-17.33226 c 0.97578,-2.04264 3.41847,-4.52325 8.34588,-8.47539 5.75937,-4.61949 10.43718,-8.77053 12.95721,-11.4981 4.38507,-4.74624 9.94737,-14.87493 13.10136,-23.85694 1.50066,-4.27367 2.14092,-7.70795 2.14092,-11.48387 v -2.8107 h -55.95 -55.95 l 0.003,3.375 c 0.003,4.61211 1.23351,9.40234 4.33524,16.875 7.85613,18.9267 19.6656,30.48069 36.61266,35.82048 l 3.9,1.22886 13.05,0.86145 c 7.1775,0.47379 13.93626,0.87894 15.01944,0.90033 1.94082,0.0383 1.97619,0.0246 2.43519,-0.93612 z m -23.00463,-64.11925 c 7.72329,-0.26234 10.26423,-0.53953 11.8047,-1.28778 0.74499,-0.36185 0.79308,-0.50909 0.76044,-2.32713 -0.0391,-2.17781 -1.37253,-6.47422 -3.53253,-11.38216 -5.83917,-13.26791 -16.22895,-21.30868 -27.53373,-21.30868 -8.05968,0 -15.06207,3.3797 -21.01116,10.14103 -3.01797,3.43001 -5.66382,8.01634 -7.4448,12.9048 -0.86727,2.38048 -3.29292,12.03126 -3.29292,13.10133 0,0.39966 2.49276,0.45112 21.225,0.43818 11.67375,-0.008 24.735,-0.13387 29.025,-0.27959 z m 59.5437,-154.20575 c 0.18141,-44.7975 0.45009,-85.77 0.59706,-91.05 0.147,-5.28 0.27672,-12.67125 0.28827,-16.425 l 0.021,-6.825 h -21.63525 -21.63525 l 0.19998,2.175 c 0.70197,7.63561 0.84561,18.93374 0.96768,76.125 l 0.13224,61.95 7.88244,11.85 c 10.55001,15.86033 14.98956,23.00961 17.86077,28.7623 1.55778,3.12111 2.72739,6.13777 2.72739,7.03442 0,0.85701 2.49036,6.85214 3.35325,8.0724 1.04208,1.47365 3.19134,6.31343 4.29909,9.68088 0.59709,1.815 1.78581,4.9038 2.64162,6.86399 l 1.55604,3.564 0.20694,-10.164 c 0.11382,-5.59019 0.35538,-46.81649 0.53676,-91.61399 z m -390.66154,84.225 c 0.3164,-0.86625 1.1614,-3.195 1.87777,-5.175 1.79472,-4.9605 6.39038,-14.02635 11.10154,-21.9 12.73521,-21.28403 28.74125,-42.53042 33.30477,-44.2087 4.26314,-1.56782 3.56503,-1.8789 -5.41624,-2.41351 -13.53683,-0.80578 -28.05868,-0.92634 -111.675,-0.92705 l -87.224999,-7.4e-4 v 38.1 38.1 h 78.728439 78.72845 z m 342.05062,-78.48273 c 0.75831,-13.12237 1.07724,-31.95102 1.67634,-98.96727 l 0.18843,-21.075 h -33.20874 -33.20871 l 0.19158,1.875 c 0.57585,5.63609 0.84183,16.70875 1.08279,45.075 0.29691,34.95426 0.44274,37.73068 2.09169,39.827 0.32679,0.41542 1.50759,1.11832 2.62398,1.56199 3.44643,1.36964 9.39159,4.81261 17.72574,10.26539 12.88092,8.42762 23.51403,16.41384 30.95412,23.24875 3.14322,2.88755 5.68284,4.81571 7.65,5.80816 l 1.5,0.75676 0.20481,-1.39175 c 0.11265,-0.76547 0.35025,-3.90828 0.52797,-6.98403 z m -283.95727,-3.11727 c 11.53078,-9.4439 19.22778,-14.83448 29.87449,-20.92251 6.63478,-3.79392 17.55015,-9.25547 24,-12.0085 4.54376,-1.93944 12.24998,-4.88956 19.27945,-7.38062 l 4.12944,-1.46337 -88.42944,-0.18053 c -48.6362,-0.0993 -114.6532,-0.29021 -146.70445,-0.42425 l -58.274999,-0.24371 v 22.54925 22.54924 H 175.63214 282.18393 Z m 215.06629,-67.5 c 0.13527,-33.29979 0.32487,-42.82761 0.9552,-48 l 0.17367,-1.425 h -19.37646 -19.37643 l 0.24111,3.375 c 0.35106,4.91381 0.21927,45.42203 -0.18018,55.38646 -0.31134,7.76612 -0.55539,10.73751 -1.10532,13.45719 -0.17538,0.86741 -0.10584,1.00385 0.66537,1.30536 0.4737,0.18519 1.40124,0.40429 2.06124,0.48689 0.66,0.0826 2.44392,0.53938 3.96429,1.01506 1.52034,0.47568 5.77284,1.66772 9.45,2.64897 10.4028,2.776 15.82686,4.86546 20.18571,7.77597 0.99,0.66105 1.88784,1.21252 1.99518,1.2255 0.10737,0.013 0.26334,-16.75015 0.34662,-37.2514 z M 66.357264,824.47645 c -0.667643,-0.66765 -0.876923,-1.15449 -0.876923,-2.04 0,-1.40637 0.418123,-1.88307 1.651716,-1.88307 1.623196,0 4.156559,2.37114 3.837385,3.59169 -0.180073,0.68859 -1.331199,1.20831 -2.676294,1.20831 -0.77043,0 -1.297892,-0.23892 -1.935884,-0.87693 z"
           style="fill:none;fill-opacity:1;stroke:#000000;stroke-width:0.89999998;stroke-miterlimit:4;stroke-dasharray:none;stroke-opacity:0"
           inkscape:connector-curvature="0" />
        <path
           id="path5329"
           d="m 358.18302,856.30571 c -8.68426,-3.22618 -23.99291,-10.69323 -34.01923,-16.59347 -10.02632,-5.90022 -21.50679,-12.43557 -25.51215,-14.52296 -12.4146,-6.46985 -41.71037,-39.70765 -52.6839,-59.773 -14.01588,-25.62838 -24.45171,-65.99704 -24.45171,-94.58591 0,-23.24606 9.34405,-59.05769 21.7047,-83.18454 13.63201,-26.60842 30.6348,-45.99234 55.90956,-63.73931 24.12528,-16.93985 38.81237,-24.38983 67.48704,-34.2326 20.38526,-6.99737 25.41777,-7.71636 54.12637,-7.73295 30.31324,-0.0175 32.84884,0.39804 59.97211,9.82872 32.61741,11.34098 50.23242,21.26344 70.96298,39.97314 13.44897,12.13793 32.70904,35.38725 32.70904,39.48391 0,0.92993 -6.52035,-3.64615 -14.48967,-10.16906 -7.96932,-6.52292 -22.58983,-15.72538 -32.49005,-20.44992 -76.96967,-36.73118 -170.6474,11.20982 -191.05179,97.77365 -4.8849,20.72377 -4.95281,60.1302 -0.13549,78.6251 12.0819,46.38557 46.37688,84.71771 90.7321,101.41299 21.80002,8.20549 60.47484,8.78336 84.80086,1.26708 31.95893,-9.87473 62.90922,-33.6835 78.73834,-60.57016 l 8.15971,-13.85969 48.34664,-0.68439 48.34662,-0.68441 v 59.27309 59.27307 l -165.68626,-0.13129 -165.68625,-0.13129 -15.78956,-5.86577 z"
           style="opacity:1;fill:none;fill-opacity:1;stroke:#000000;stroke-width:0.89999998;stroke-miterlimit:4;stroke-dasharray:none;stroke-opacity:0"
           inkscape:connector-curvature="0" />
        <path
           id="path5331"
           d="m 361.34341,857.56765 c -30.10312,-10.72193 -72.37436,-36.52073 -85.79452,-52.36172 -21.02238,-24.81456 -31.16092,-40.32582 -38.54877,-58.97695 -8.94574,-22.58414 -15.48409,-54.63681 -15.48409,-75.90699 0,-37.77284 20.01928,-89.9412 45.47385,-118.50059 23.22652,-26.05958 62.89242,-50.54957 102.45766,-63.25804 17.79713,-5.7165 25.05522,-6.64068 52.15253,-6.64068 30.16208,0 32.64928,0.41253 59.49036,9.86706 32.41846,11.41913 49.99574,21.36789 70.58836,39.95309 13.07949,11.80447 32.70904,35.35609 32.70904,39.24445 0,0.79823 -7.65432,-4.35523 -17.00961,-11.45214 -33.6292,-25.51107 -65.77566,-34.69343 -104.45504,-29.83668 -27.62033,3.46813 -59.70746,20.25064 -79.81486,41.74552 -18.06167,19.30799 -31.99314,45.25762 -37.014,68.94462 -4.67086,22.0358 -4.5614,58.61986 0.23045,77.01697 10.54227,40.47452 39.75664,76.07526 77.85438,94.87366 22.07723,10.89346 23.01899,11.11167 51.65886,11.96885 32.61315,0.9761 48.19237,-2.71 75.37298,-17.83359 17.81464,-9.91224 45.47406,-37.50711 51.82913,-51.70815 l 4.79263,-10.70958 h 48.75617 48.75618 v 59.21866 59.21867 l -165.68626,-0.18421 c -152.3559,-0.16934 -166.70234,-0.54602 -178.31543,-4.68231 z"
           style="opacity:1;fill:none;fill-opacity:1;stroke:#000000;stroke-width:0.89999998;stroke-miterlimit:4;stroke-dasharray:none;stroke-opacity:0"
           inkscape:connector-curvature="0" />
        <path
           id="path5333"
           d="M 440.53928,812.27407 C 422.48144,805.667 407.73179,795.7976 391.17997,779.24641 361.38443,749.45198 350.25582,721.97974 350.36024,678.47824 c 0.10946,-45.60202 10.50301,-72.75572 39.16875,-102.33044 29.64636,-30.58644 53.52836,-39.87165 98.75992,-38.39735 26.24114,0.85531 29.33401,1.52131 47.70324,10.27213 22.96436,10.93986 45.53987,31.12739 55.71409,49.82077 3.77071,6.92804 6.15157,12.59643 5.29081,12.59643 -0.86074,0 -5.82035,-3.41969 -11.02133,-7.59931 -12.37311,-9.9433 -22.29976,-12.56024 -47.64399,-12.56024 -17.12847,0 -23.03013,1.09616 -32.77589,6.08772 -16.19578,8.29511 -31.64687,24.90284 -40.05287,43.05118 -5.92248,12.78646 -7.00318,18.42501 -7.00318,36.53917 0,18.11416 1.0807,23.75271 7.00318,36.53918 8.50067,18.35272 23.84704,34.72508 40.76663,43.49211 10.54594,5.46447 15.88575,6.51473 32.75926,6.44327 17.19313,-0.0728 22.7218,-1.26121 37.57247,-8.07632 9.57711,-4.39502 18.31405,-7.67346 19.41544,-7.28541 4.37978,1.54314 -6.82396,17.90571 -21.94692,32.0525 -10.20715,9.54827 -23.90192,18.8742 -37.91479,25.81934 -21.86006,10.83445 -22.04183,10.87416 -52.37024,11.44541 -24.43643,0.46027 -32.95878,-0.35052 -43.24554,-4.11431 z"
           style="opacity:1;fill:none;fill-opacity:1;stroke:#000000;stroke-width:0.89999998;stroke-miterlimit:4;stroke-dasharray:none;stroke-opacity:0"
           inkscape:connector-curvature="0" />
        <path
           id="path5335"
           d="m 519.06229,752.57897 c -17.62861,-5.61205 -41.84353,-30.111 -47.94719,-48.50959 -17.15384,-51.70773 18.43449,-106.86708 69.17373,-107.21431 26.2896,-0.17992 46.77429,13.18058 65.38153,42.64306 7.5702,11.98656 10.21676,18.80417 10.21676,26.31863 V 675.9583 H 598.2838 580.68048 l -2.81824,-11.19227 c -4.02292,-15.97647 -17.41876,-30.77885 -29.73769,-32.86012 -23.82476,-4.02517 -40.71877,8.68057 -46.18353,34.73393 -3.67866,17.53817 0.009,35.60893 10.65185,52.19399 9.99487,15.57564 23.0642,22.54256 45.93497,24.48674 l 18.30016,1.55564 -10.78334,4.72761 c -15.04349,6.59532 -32.19828,7.68165 -46.98237,2.97515 z"
           style="opacity:1;fill:none;fill-opacity:1;stroke:#000000;stroke-width:0.89999998;stroke-miterlimit:4;stroke-dasharray:none;stroke-opacity:0"
           inkscape:connector-curvature="0" />
        <path
           id="path5337"
           d="m 510.04951,670.83748 c 0,-6.30508 7.5305,-19.68974 13.89416,-24.6954 16.25601,-12.78698 37.92421,-2.42121 45.20699,21.6264 1.71458,5.6615 1.67219,5.66988 -28.69202,5.66988 -19.22366,0 -30.40913,-0.95669 -30.40913,-2.60088 z"
           style="opacity:1;fill:none;fill-opacity:1;stroke:#000000;stroke-width:0.89999998;stroke-miterlimit:4;stroke-dasharray:none;stroke-opacity:0"
           inkscape:connector-curvature="0" />
        <path
           id="path5339"
           d="m 542.80877,734.93932 c -12.62288,-5.46759 -22.4234,-15.51191 -29.27344,-30.00167 -10.70733,-22.64899 -13.47245,-21.41952 48.17301,-21.41952 52.7941,0 54.17878,0.13095 54.17878,5.12366 0,9.62574 -12.31914,29.45133 -24.78636,39.88948 -11.25984,9.42727 -13.74594,10.41616 -25.96222,10.32697 -7.43048,-0.0543 -17.47888,-1.81776 -22.32977,-3.91892 z"
           style="opacity:1;fill:none;fill-opacity:1;stroke:#000000;stroke-width:0.89999998;stroke-miterlimit:4;stroke-dasharray:none;stroke-opacity:0"
           inkscape:connector-curvature="0" />
        <path
           id="path5341"
           d="m 608.24008,599.61094 c -3.41288,-8.59681 -11.54177,-23.80805 -18.06421,-33.80275 l -11.85897,-18.17218 -0.74445,-69.39783 -0.74445,-69.39783 20.68667,0.002 20.68667,0.002 -1.50404,102.68768 c -0.82722,56.47823 -1.67232,102.91759 -1.878,103.19859 -0.20568,0.281 -3.16634,-6.52285 -6.57922,-15.11966 z"
           style="opacity:1;fill:none;fill-opacity:1;stroke:#000000;stroke-width:0.89999998;stroke-miterlimit:4;stroke-dasharray:none;stroke-opacity:0"
           inkscape:connector-curvature="0" />
        <path
           id="path5343"
           d="m 543.8346,516.32143 c -11.21654,-8.52455 -23.97375,-17.43089 -28.34937,-19.79187 l -7.95566,-4.2927 v -33.82144 c 0,-18.60179 -0.70874,-37.36511 -1.57497,-41.69627 l -1.57496,-7.87482 h 33.07425 33.07426 v 23.5388 c 0,35.52275 -3.10542,99.97212 -4.80335,99.68794 -0.82308,-0.13776 -10.67367,-7.22509 -21.8902,-15.74964 z"
           style="opacity:1;fill:none;fill-opacity:1;stroke:#000000;stroke-width:0.89999998;stroke-miterlimit:4;stroke-dasharray:none;stroke-opacity:0"
           inkscape:connector-curvature="0" />
        <path
           id="path5345"
           d="m 480.20894,484.91072 c -18.1712,-6.23244 -18.47426,-6.47834 -17.00962,-13.80156 0.82017,-4.10084 1.49122,-19.78804 1.49122,-34.86045 v -27.40438 h 17.6396 17.6396 v 41.57906 c 0,22.86849 -0.28349,41.41116 -0.62999,41.20594 -0.34649,-0.20522 -8.95536,-3.22859 -19.13081,-6.71861 z"
           style="opacity:1;fill:none;fill-opacity:1;stroke:#000000;stroke-width:0.89999998;stroke-miterlimit:4;stroke-dasharray:none;stroke-opacity:0"
           inkscape:connector-curvature="0" />
        <path
           id="path5347"
           d="m 69.059468,503.3422 v -21.41952 l 144.266742,0.0308 144.26674,0.0308 -18.89957,8.30181 c -19.8855,8.73487 -36.81022,18.65629 -48.70225,28.54967 l -7.12319,5.92602 H 175.96371 69.059468 v -21.41951 z"
           style="opacity:1;fill:none;fill-opacity:1;stroke:#000000;stroke-width:0.89999998;stroke-miterlimit:4;stroke-dasharray:none;stroke-opacity:0"
           inkscape:connector-curvature="0" />
        <path
           id="path5349"
           d="M 69.059468,568.86072 V 532.32154 H 171.21914 273.37882 l -6.5642,6.92985 c -9.55116,10.08318 -30.51326,42.42764 -35.74798,55.15906 l -4.51073,10.97055 -78.74822,0.009 -78.748222,0.009 v -36.53917 z"
           style="opacity:1;fill:none;fill-opacity:1;stroke:#000000;stroke-width:0.89999998;stroke-miterlimit:4;stroke-dasharray:none;stroke-opacity:0"
           inkscape:connector-curvature="0" />
        <path
           id="path5351"
           d="M 71.579411,687.66244 V 618.7284 l 17.009616,-1.60645 c 9.355289,-0.88355 43.506713,-1.61452 75.892063,-1.62437 l 58.88244,-0.0179 -1.50341,6.92984 c -4.58791,21.1475 -6.67852,60.63608 -4.10799,77.59393 2.43838,16.08604 8.7613,39.96457 13.81785,52.18314 1.71588,4.14623 -3.01247,4.4099 -79.08278,4.4099 H 71.579411 v -68.93404 z"
           style="opacity:1;fill:none;fill-opacity:1;stroke:#000000;stroke-width:0.89999998;stroke-miterlimit:4;stroke-dasharray:none;stroke-opacity:0"
           inkscape:connector-curvature="0" />
        <path
           id="path5354"
           d="m 601.44481,599.75237 c -4.64351,-9.09484 -10.7825,-17.93652 -17.43004,-25.10362 -3.04878,-3.28706 -3.68363,-4.28191 -1.96368,-3.07721 1.14057,0.79889 2.63224,0.90218 3.30553,0.2289 0.50807,-0.50808 2.51935,2.49229 9.41919,14.05131 2.19375,3.6751 4.71677,7.87394 5.6067,9.33074 1.65679,2.71214 4.43975,9.38607 4.1994,10.07077 -0.0736,0.20972 -1.48531,-2.26568 -3.1371,-5.50089 z"
           style="opacity:1;fill:none;fill-opacity:1;stroke:#000000;stroke-width:0.89999998;stroke-miterlimit:4;stroke-dasharray:none;stroke-opacity:0"
           inkscape:connector-curvature="0" />
        <path
           id="path5356"
           d="m 507.08858,684.78908 v -2.40492 l 11.57599,0.0493 c 10.76537,0.0459 11.15689,0.066 5.59112,0.28823 -9.51408,0.37982 -14.8916,1.57947 -16.55409,3.69298 l -0.61302,0.77934 z"
           style="opacity:1;fill:none;fill-opacity:1;stroke:#000000;stroke-width:0.89999998;stroke-miterlimit:4;stroke-dasharray:none;stroke-opacity:0"
           inkscape:connector-curvature="0" />
        <path
           id="path5358"
           d="m 509.41165,673.52498 c 0.10828,-0.54139 0.19687,-1.12574 0.19687,-1.29854 0,-0.18538 0.17944,-0.16527 0.43769,0.0491 0.98117,0.8143 8.01604,1.69785 16.09944,2.02202 1.21272,0.0486 -2.10061,0.11619 -7.36296,0.15012 l -9.56791,0.0617 0.19687,-0.98435 z"
           style="opacity:1;fill:none;fill-opacity:1;stroke:#000000;stroke-width:0.89999998;stroke-miterlimit:4;stroke-dasharray:none;stroke-opacity:0"
           inkscape:connector-curvature="0" />
      </g>
      <path
         style="opacity:1;fill:none;fill-opacity:1;stroke:#000000;stroke-width:0.89999998;stroke-miterlimit:4;stroke-dasharray:none;stroke-opacity:0"
         d="m 562.35141,528.50271 c -1.10253,-0.77036 -8.11864,-5.93327 -15.59135,-11.47313 -19.68499,-14.59337 -26.19034,-19.03449 -34.78615,-23.74804 l -2.93524,-1.60956 -0.31095,-28.19407 c -0.38957,-35.32262 -0.98282,-46.54936 -2.77867,-52.58341 -0.21945,-0.73735 1.49818,-0.77957 31.72164,-0.77957 h 31.95364 l -0.29131,24.8348 c -0.36049,30.73266 -1.18477,53.95071 -2.79353,78.6881 -0.8479,13.03776 -1.1643,15.97587 -1.73801,16.13893 -0.24501,0.0696 -1.34754,-0.50369 -2.45007,-1.27405 z"
         id="path5360"
         inkscape:connector-curvature="0" />
      <path
         style="opacity:1;fill:#000000;fill-opacity:1;stroke:#000000;stroke-width:0.80184096;stroke-miterlimit:4;stroke-dasharray:none;stroke-opacity:0"
         d="m 128.67782,763.05883 c 20.00462,-0.13368 52.47918,-0.13362 72.16569,1.2e-4 19.68651,0.13375 3.31909,0.24313 -36.37203,0.24306 -39.69113,-6e-5 -55.79828,-0.10949 -35.79366,-0.24318 z"
         id="path5448"
         inkscape:connector-curvature="0" />
      <path
         style="opacity:1;fill:#000000;fill-opacity:0;stroke:#000000;stroke-width:0.80184096;stroke-miterlimit:4;stroke-dasharray:none;stroke-opacity:0"
         d="m 388.98695,869.78667 -15.14588,-0.5225 -12.15826,-4.19277 C 328.44475,853.60928 293.0128,832.6201 275.36316,813.93735 264.10535,802.02057 246.11778,778.91412 240.12862,768.67582 l -3.28753,-5.61996 -26.82999,-0.67135 c -14.7565,-0.36925 -45.67326,-0.5409 -68.70392,-0.38147 -23.03065,0.15944 -49.391177,0.21159 -58.578939,0.11589 l -16.70502,-0.17399 V 619.38567 476.82639 l 195.273069,0.0295 c 107.40019,0.0162 195.61105,-0.30845 196.02413,-0.72154 0.41308,-0.41308 1.00818,-16.85971 1.32245,-36.54806 l 0.57139,-35.79702 h 81.23007 81.23008 l 0.59285,51.45146 c 1.38912,120.55617 1.65701,204.07438 0.70799,220.72901 -1.10085,19.31947 -2.17835,24.2718 -7.83133,35.994 -3.49106,7.23918 -5.17296,9.4927 -12.40126,16.61601 -6.54066,6.44566 -8.04068,8.36444 -6.88548,8.80774 0.81232,0.31171 26.66428,0.81795 57.44882,1.12497 l 55.97188,0.55822 v 65.78411 65.78412 l -152.57252,-0.16488 c -83.91489,-0.0907 -159.38817,-0.40001 -167.71841,-0.68739 z m 318.06359,-65.96781 v -61.02901 l -42.76485,-0.2704 c -23.52067,-0.14872 -46.02217,-0.0167 -50.00333,0.2934 l -7.23848,0.56381 -5.12992,9.50687 c -7.16662,13.28136 -9.32007,16.21068 -19.99583,27.20017 -12.63978,13.01122 -21.84663,19.76081 -38.35405,28.11752 -24.07686,12.18866 -31.57678,14.16599 -56.57434,14.91563 -21.74401,0.65208 -32.20247,-0.40542 -44.4108,-4.49059 -24.18904,-8.09416 -46.2642,-22.66224 -62.52591,-41.26278 -15.93926,-18.2317 -28.39846,-42.96467 -33.57348,-66.64727 -2.31477,-10.59314 -3.19682,-40.26079 -1.59964,-53.80372 2.86233,-24.27048 10.64097,-45.66365 23.8457,-65.58149 14.2781,-21.53691 29.83534,-34.93021 55.3459,-47.64757 22.77408,-11.35318 35.53476,-13.96079 64.25463,-13.13027 13.64832,0.39468 17.95511,0.85954 25.0482,2.7036 28.71576,7.46552 58.62442,27.61159 76.5404,51.55657 8.73929,11.6802 20.20191,35.99553 23.97748,50.86278 0.84755,3.33739 1.9084,6.05371 2.35747,6.03626 1.23285,-0.0479 1.50362,-13.9641 0.31492,-16.18521 -0.76566,-1.43062 -0.76419,-2.06103 0.006,-2.53696 1.57621,-0.97415 1.77146,-11.26663 2.23576,-117.85711 l 0.42945,-98.67099 -22.02191,-2.6e-4 -22.02189,-2.6e-4 0.2767,70.16135 0.27672,70.16135 9.59429,14.70041 c 13.15449,20.15537 16.54174,26.08792 19.32318,33.84331 1.31564,3.66838 2.92096,7.47713 3.56737,8.46387 1.63023,2.48856 5.88147,13.95458 5.3653,14.47076 -0.58477,0.58477 -5.78343,-9.87677 -7.75339,-15.60254 -2.63453,-7.65739 -18.04647,-32.51713 -29.64355,-47.81557 -2.95422,-3.89709 -9.57983,-11.44172 -14.72359,-16.76583 -23.34799,-24.16663 -45.7791,-37.47157 -82.94942,-49.20116 -5.14514,-1.62361 -11.84209,-4.00111 -14.88211,-5.28332 -7.2593,-3.06181 -19.66684,-4.02867 -52.04055,-4.05527 -23.14031,-0.019 -24.73587,0.0841 -26.83299,1.73367 -1.22633,0.96463 -6.59259,2.94259 -11.92503,4.39546 -5.33243,1.45287 -13.30361,3.89546 -17.71374,5.42797 -10.88838,3.7837 -40.07058,18.16389 -42.477,20.9315 -1.07007,1.23069 -2.46928,2.23763 -3.10934,2.23763 -0.64007,0 -5.47477,3.2762 -10.74381,7.28044 -5.26902,4.00424 -11.78937,8.58494 -14.48965,10.17933 -5.54832,3.27601 -9.89703,7.58881 -20.55374,20.38404 -14.50002,17.4098 -29.69653,44.38868 -34.13691,60.60444 -2.34585,8.56679 -9.16703,39.80679 -9.82394,44.99219 -0.21726,1.71505 -0.22192,-1.29185 -0.0103,-6.68201 0.22091,-5.62829 1.34998,-14.35153 2.65225,-20.49149 1.24717,-5.88017 2.49868,-11.9942 2.78114,-13.58675 l 0.51354,-2.89553 -23.94907,8e-4 c -13.17198,4.4e-4 -48.30498,0.26664 -78.07333,0.59154 l -54.124291,0.59074 v 70.99648 70.99647 l 70.606551,0.40699 c 72.87554,0.42008 92.5593,0.0981 94.19229,-1.54067 0.67213,-0.67453 0.19238,-2.62526 -1.64334,-6.68201 -5.85452,-12.93799 -11.37931,-34.0514 -13.9718,-53.39438 -1.37779,-10.27989 -1.55416,-25.90649 -0.33186,-29.40083 0.54461,-1.55691 0.64259,-0.7524 0.32552,2.6728 -0.79455,8.58347 4.90595,42.67545 9.98119,59.69261 2.09559,7.0265 8.14255,22.2849 13.41704,33.8555 4.23215,9.284 18.76271,28.89564 34.53253,46.60791 8.48257,9.52741 12.28292,12.73611 19.18922,16.20179 2.69508,1.35242 7.70659,4.2744 11.13668,6.49328 25.30593,16.37004 40.06446,23.44011 62.76847,30.06919 l 10.28816,3.00391 163.48647,-0.18204 163.48646,-0.18204 v -61.02901 z m -203.92185,14.6577 c 35.84623,-6.25107 79.25029,-35.57392 93.04195,-62.85716 1.38709,-2.74401 2.64684,-6.15184 2.79942,-7.57294 0.26589,-2.47641 0.1288,-2.58126 -3.29834,-2.52248 -2.27399,0.039 -7.46353,1.77836 -14.25495,4.77779 -24.42525,10.78742 -22.16088,10.18511 -39.75357,10.57419 -18.37222,0.40631 -22.61523,-0.27316 -32.96741,-5.27936 -24.58307,-11.88809 -41.59802,-33.96714 -47.28842,-61.36268 -2.37416,-11.43001 -1.87514,-31.66556 1.0436,-42.31938 6.90469,-25.20304 24.80984,-46.12136 48.12691,-56.22592 9.17668,-3.97676 18.81204,-5.21116 34.76806,-4.45421 21.10787,1.00136 28.45573,3.7936 45.0323,17.11262 5.73325,4.60658 10.80289,8.3756 11.26584,8.3756 0.46372,0 0.56171,-0.90026 0.21818,-2.0046 -1.17975,-3.79261 -9.5398,-19.83054 -12.9734,-24.88819 -18.20437,-26.81482 -48.35149,-46.64568 -81.03752,-53.30667 -6.97041,-1.42048 -12.31538,-1.80937 -24.90718,-1.81221 -24.50043,-0.005 -39.28797,3.16192 -58.47294,12.52466 -13.58565,6.63014 -25.75775,15.7098 -37.3513,27.86183 -19.62978,20.57538 -30.92753,41.95233 -36.01407,68.14372 -3.67737,18.93536 -3.86025,49.69007 -0.40326,67.81711 3.14266,16.47881 11.09153,34.69791 21.52435,49.33459 6.73626,9.45061 27.20617,30.16382 36.64532,37.08089 13.89408,10.18167 32.90374,18.33229 49.13908,21.069 9.80327,1.65249 35.47767,1.61481 45.11735,-0.0662 v -10e-6 z m 50.68113,-62.90961 c 10.72946,-3.08888 24.12128,-8.69465 26.29272,-11.00604 l 2.08232,-2.21653 -3.49631,-0.0356 c -14.63792,-0.14874 -27.91283,-0.99985 -33.38228,-2.14025 -13.80154,-2.87771 -24.02284,-10.0924 -31.5523,-22.27117 -8.1018,-13.10452 -11.13989,-23.57043 -11.15971,-38.44414 -0.0226,-16.96456 4.02069,-28.42441 13.34714,-37.82959 6.50789,-6.56283 11.91626,-8.37144 24.99944,-8.36004 8.44763,0.007 9.91509,0.25805 14.42431,2.4642 9.98109,4.88329 18.63885,17.72821 21.54392,31.9632 0.77079,3.77695 1.40145,7.68593 1.40145,8.68662 0,1.77832 0.45528,1.81943 20.15137,1.81943 h 20.15137 l -0.3832,-11.35942 -0.38321,-11.35941 -4.02873,-6.23654 c -2.2158,-3.4301 -5.99974,-9.61295 -8.40875,-13.73968 -5.03866,-8.63139 -16.77635,-21.49991 -24.89462,-27.29299 -6.78251,-4.83989 -18.76905,-10.60585 -25.77845,-12.40035 -7.6285,-1.95301 -20.91126,-1.75654 -29.5166,0.43658 -19.41014,4.94679 -38.10754,18.76645 -47.67992,35.2413 -14.66831,25.24535 -17.30124,50.27631 -7.80338,74.1858 11.3563,28.58782 36.2969,48.81713 63.74108,51.70034 7.87299,0.82712 12.66512,0.40151 20.33234,-1.80579 v 2e-5 z m 30.95113,-18.79091 c 2.58787,-2.57257 8.30923,-7.9244 12.71415,-11.89297 6.08119,-5.4788 8.96167,-8.88633 11.96724,-14.15688 5.13993,-9.01337 8.96023,-19.87118 8.96023,-25.46619 v -4.39009 h -56.57434 -56.57434 l 0.0106,3.78647 c 0.0316,11.32397 8.85269,29.77916 19.05642,39.86931 10.82418,10.70371 20.72171,14.7037 39.28921,15.87836 6.86019,0.434 13.3669,0.84766 14.45935,0.91925 1.30947,0.0858 3.58953,-1.46363 6.69149,-4.54726 h -2e-5 z M 569.7244,675.11493 c 4.16731,-1.88155 -1.89091,-18.79235 -9.73744,-27.18093 -11.7991,-12.61419 -29.01127,-12.67172 -40.73684,-0.13613 -2.22532,2.37903 -5.06341,6.33323 -6.30688,8.7871 -2.58086,5.09308 -6.14227,17.83863 -5.345,19.12865 0.65554,1.06069 59.71138,0.49159 62.12616,-0.59869 z M 229.43867,601.24662 c 7.1895,-19.71238 37.77815,-64.58403 46.09054,-67.61198 0.98532,-0.35891 0.99285,-0.65628 0.0422,-1.66215 -1.67615,-1.77335 -205.886109,-2.36408 -207.005901,-0.59881 -0.836418,1.31854 -1.04584,72.87714 -0.219582,75.03033 0.487507,1.27043 8.331917,1.40927 79.619293,1.40927 h 79.0785 l 2.395,-6.56666 z M 569.6914,530.44227 c 0.29923,-2.86293 0.75943,-18.99998 1.02265,-35.86011 0.26323,-16.86013 0.68885,-43.58447 0.94582,-59.38742 l 0.46722,-28.73264 h -34.39164 -34.39164 l 0.57236,4.67741 c 0.31481,2.57257 0.85941,21.77273 1.21023,42.66702 0.51365,30.59243 0.88138,38.28303 1.88851,39.49655 0.68785,0.82882 3.47969,2.63401 6.20409,4.01155 10.06475,5.08906 32.1127,20.45645 44.15456,30.77569 6.30167,5.4002 9.37362,7.55728 10.76253,7.55728 0.5769,0 1.24493,-2.23577 1.55531,-5.20533 z m -280.60504,-8.80845 c 16.84566,-13.61067 40.03797,-26.55987 61.89361,-34.5577 6.44843,-2.35973 11.72442,-4.57522 11.72442,-4.9233 0,-0.64488 -289.420794,-2.24474 -292.671964,-1.61784 -1.712874,0.33029 -1.791596,1.15383 -2.033065,21.26883 -0.138158,11.50888 -0.03029,21.82731 0.239707,22.92984 l 0.490904,2.0046 H 175.74933 282.7687 Z m 211.81696,-55.25638 c 0.0573,-15.06793 0.35795,-34.7137 0.6682,-43.65728 l 0.5641,-16.26106 -20.04602,0.001 -20.04602,10e-4 v 26.50569 c 0,14.57813 -0.20047,31.30485 -0.44547,37.1705 l -0.44547,10.66481 11.75833,3.22594 c 12.83285,3.52075 20.71641,6.31646 23.69533,8.40297 4.20883,2.94797 4.1863,3.08452 4.29702,-26.05379 z"
         id="path5450"
         inkscape:connector-curvature="0" />
      <path
         style="opacity:1;fill:#ffffff;fill-opacity:1;stroke:#000000;stroke-width:0.80184096;stroke-miterlimit:4;stroke-dasharray:none;stroke-opacity:0"
         d="m 72.639936,687.52195 v -68.03382 l 5.122873,-0.61331 c 12.665307,-1.51631 42.065951,-2.24844 91.380821,-2.27554 50.33874,-0.0277 53.26874,0.0572 52.84922,1.52986 -2.92572,10.27043 -5.0468,30.36808 -5.62427,53.29092 -0.45253,17.96364 -0.29036,22.9475 1.00019,30.73723 1.92508,11.61987 7.50365,33.6106 11.05516,43.5795 1.48019,4.15483 2.50198,7.74351 2.27065,7.97484 -1.3502,1.3502 -18.09348,1.70142 -84.32982,1.76896 l -73.724824,0.0752 v -68.03382 z"
         id="path5482"
         inkscape:connector-curvature="0" />
      <path
         style="opacity:1;fill:#ffffff;fill-opacity:1;stroke:#000000;stroke-width:0.80184096;stroke-miterlimit:4;stroke-dasharray:none;stroke-opacity:0"
         d="M 69.967133,568.90501 V 532.82216 H 170.71806 271.46899 l -4.87975,5.56834 c -13.78687,15.73235 -34.52185,49.11599 -39.65835,63.85054 l -0.95754,2.74681 H 147.97024 69.967133 Z"
         id="path5484"
         inkscape:connector-curvature="0" />
      <path
         style="opacity:1;fill:#ffffff;fill-opacity:1;stroke:#000000;stroke-width:0.80184096;stroke-miterlimit:4;stroke-dasharray:none;stroke-opacity:0"
         d="M 69.967133,503.42133 V 482.92984 H 211.32873 c 77.74887,0 141.19454,0.1581 140.99038,0.35133 -0.20418,0.19324 -5.98412,2.82915 -12.84431,5.85759 -21.02819,9.2829 -37.50854,18.95872 -50.67381,29.75124 l -6.1271,5.02282 H 176.32051 69.967133 Z"
         id="path5486"
         inkscape:connector-curvature="0" />
      <path
         style="opacity:1;fill:#ffffff;fill-opacity:1;stroke:#000000;stroke-width:0.80184096;stroke-miterlimit:4;stroke-dasharray:none;stroke-opacity:0"
         d="m 407.63128,860.63458 c -16.90548,-0.35014 -33.51384,-1.10213 -36.90746,-1.67108 -15.15064,-2.54002 -57.67627,-24.32079 -78.75149,-40.33493 -12.50015,-9.49831 -31.99498,-32.25811 -42.95945,-50.15425 -18.27961,-29.83586 -29.92759,-81.83686 -25.45621,-113.64615 4.71852,-33.56745 17.42837,-66.10357 35.90909,-91.92422 22.07775,-30.8463 67.92103,-60.60736 115.5707,-75.02751 14.61729,-4.4236 23.1475,-5.19943 51.84522,-4.71534 28.28141,0.47706 28.29111,0.47882 55.03865,9.99155 36.53685,12.99428 55.96671,25.09897 79.11986,49.29125 8.81949,9.21531 21.60444,25.03149 20.84666,25.78926 -0.46445,0.46446 -2.78197,-1.11372 -13.44211,-9.15379 -14.66956,-11.06406 -32.39551,-20.81399 -45.88292,-25.23731 -23.79551,-7.80397 -52.36136,-8.34127 -76.19947,-1.43326 -51.14562,14.82142 -90.70706,57.35906 -101.47352,109.10736 -4.19023,20.14005 -3.81811,57.96909 0.74726,75.9663 12.00303,47.31734 49.82278,87.98472 96.34829,103.60282 10.85048,3.64239 33.37273,5.46918 50.73114,4.11483 21.07557,-1.64437 30.06966,-3.96928 47.65435,-12.3183 28.3333,-13.45236 50.47352,-34.14869 65.37605,-61.11251 l 3.32375,-6.01381 h 15.40205 c 8.47113,0 29.90076,-0.26546 47.62139,-0.58992 l 32.21934,-0.58991 v 58.50065 58.50066 l -132.97197,-0.15289 c -73.13458,-0.0841 -146.80372,-0.43936 -163.7092,-0.7895 z"
         id="path5488"
         inkscape:connector-curvature="0" />
      <path
         style="opacity:1;fill:#ffffff;fill-opacity:1;stroke:#000000;stroke-width:0.80184096;stroke-miterlimit:4;stroke-dasharray:none;stroke-opacity:0"
         d="m 449.05973,813.97176 c -10.37597,-2.36539 -23.16756,-8.41342 -35.63737,-16.84983 -10.7924,-7.30156 -32.92436,-29.43733 -40.27868,-40.28562 -10.27003,-15.14922 -16.38331,-29.71735 -19.54065,-46.5659 -1.874,-10.00028 -2.64468,-42.09822 -1.3062,-54.40174 3.60772,-33.16275 14.29029,-55.01069 39.29763,-80.37133 21.21352,-21.51321 37.4383,-30.72682 61.97035,-35.19126 10.67275,-1.94227 44.57297,-2.17779 56.05569,-0.38944 25.69053,4.0011 60.23455,26.9812 77.0574,51.26173 3.01328,4.34909 9.20174,16.51807 8.67038,17.04943 -0.2115,0.2115 -3.54482,-1.94881 -7.4074,-4.80067 -9.75993,-7.20608 -12.35879,-8.66703 -19.49593,-10.95963 -5.44929,-1.75042 -8.65455,-2.05306 -25.39164,-2.39746 -15.37162,-0.3163 -20.34174,-0.1166 -25.16292,1.01108 -11.48687,2.68679 -23.60822,10.1929 -34.81097,21.55661 -7.35549,7.46118 -12.56085,15.08709 -17.9267,26.26277 -6.42105,13.3734 -7.14471,17.2074 -7.13611,37.80757 l 0.007,17.81869 3.16607,9.0501 c 7.92208,22.64482 24.6423,42.51371 44.44734,52.81743 10.73762,5.58633 15.88957,6.61393 32.96118,6.57438 17.30672,-0.0401 22.59069,-1.07071 36.45089,-7.10962 12.77651,-5.56674 20.2605,-8.33313 20.87673,-7.71689 1.48514,1.48513 -3.54977,9.58938 -12.44347,20.02918 -11.59923,13.61565 -28.4005,26.16113 -49.10293,36.66506 -19.31472,9.79984 -19.24623,9.78653 -51.91009,10.09175 -21.32865,0.19929 -29.34744,-0.0303 -33.41004,-0.95639 h 3.1e-4 z"
         id="path5490"
         inkscape:connector-curvature="0" />
      <path
         style="opacity:1;fill:#ffffff;fill-opacity:1;stroke:#000000;stroke-width:0.80184096;stroke-miterlimit:4;stroke-dasharray:none;stroke-opacity:0"
         d="m 524.87318,753.20052 c -10.60136,-2.27285 -21.06651,-8.57585 -31.93758,-19.23554 -11.97358,-11.74076 -19.55187,-23.52919 -22.48945,-34.98354 -4.87055,-18.99155 -3.41862,-37.79811 4.29928,-55.68785 4.21047,-9.75967 8.8741,-16.40731 17.49779,-24.94172 14.19065,-14.04374 29.42712,-20.46055 48.58276,-20.46055 24.66327,0 43.99763,12.04596 61.61046,38.38539 10.1768,15.21911 12.71998,21.81203 12.76078,33.08116 l 0.0218,6.0138 H 598.32561 581.4322 l -0.95334,-3.78647 c -2.56569,-10.19047 -5.12167,-16.59261 -8.93708,-22.38535 -5.49484,-8.34255 -10.02694,-12.75421 -16.01536,-15.58975 -4.42829,-2.09682 -5.93144,-2.32118 -15.61009,-2.32996 -10.28601,-0.009 -10.94214,0.10459 -16.57584,2.87805 -12.76526,6.28432 -20.59131,19.50903 -23.04981,38.95033 -2.01903,15.96613 3.03761,33.85469 13.90212,49.18057 4.99306,7.04341 9.93699,11.24189 17.72385,15.0515 8.22428,4.02359 15.06135,5.65413 29.25293,6.97636 l 11.73006,1.09289 -3.56374,1.83194 c -12.84284,6.60187 -30.45412,8.96207 -44.4627,5.95874 z"
         id="path5492"
         inkscape:connector-curvature="0" />
      <path
         style="opacity:1;fill:#ffffff;fill-opacity:1;stroke:#000000;stroke-width:0.80184096;stroke-miterlimit:4;stroke-dasharray:none;stroke-opacity:0"
         d="m 520.33449,672.09782 c -10.69327,-0.9047 -10.84687,-1.13894 -6.6166,-10.09016 4.53881,-9.6041 8.88669,-14.61668 15.50422,-17.87448 5.18683,-2.55347 6.41319,-2.81278 11.40677,-2.41194 6.8858,0.55273 12.01645,3.06555 17.5428,8.59189 4.4642,4.46421 9.76079,14.10517 10.07961,18.34714 0.15517,2.06464 -0.24898,2.70431 -2.03368,3.21884 -2.19216,0.632 -38.92847,0.80711 -45.88312,0.21871 z"
         id="path5494"
         inkscape:connector-curvature="0" />
      <path
         style="opacity:1;fill:#ffffff;fill-opacity:1;stroke:#000000;stroke-width:0.80184096;stroke-miterlimit:4;stroke-dasharray:none;stroke-opacity:0"
         d="m 550.86032,736.41056 c -8.85806,-1.81473 -16.12217,-6.01927 -23.96332,-13.87021 -5.90578,-5.91316 -7.57776,-8.36086 -12.69582,-18.58606 -3.24187,-6.47684 -5.89431,-12.77155 -5.89431,-13.98826 0,-1.69326 0.78373,-2.56727 3.34101,-3.72587 3.01139,-1.36434 8.08737,-1.51368 51.45146,-1.51368 54.49207,0 52.73365,-0.2073 51.73268,6.09882 -1.94351,12.24412 -16.81804,32.52022 -30.93966,42.17519 l -6.27632,4.29113 -10.37662,0.17433 c -6.0528,0.10169 -12.87778,-0.33808 -16.3791,-1.05539 z"
         id="path5496"
         inkscape:connector-curvature="0" />
      <path
         style="opacity:1;fill:#ffffff;fill-opacity:1;stroke:#000000;stroke-width:0.80184096;stroke-miterlimit:4;stroke-dasharray:none;stroke-opacity:0"
         d="m 551.07172,519.31593 c -17.15984,-12.74837 -28.08595,-20.40421 -34.74644,-24.34657 -3.18509,-1.88526 -5.89506,-3.49819 -6.02215,-3.58429 -0.12709,-0.0861 -0.65229,-16.55711 -1.1671,-36.60225 -0.51482,-20.04515 -1.15456,-38.14964 -1.42164,-40.2322 l -0.48561,-3.78647 h 30.83082 30.83081 l -0.0129,8.68661 c -0.0235,15.87809 -1.73381,71.71959 -2.66732,87.08884 -1.00614,16.56522 -1.61912,21.85858 -2.52099,21.76987 -0.32444,-0.0319 -6.00232,-4.079 -12.61751,-8.99354 z"
         id="path5498"
         inkscape:connector-curvature="0" />
      <path
         style="opacity:1;fill:#ffffff;fill-opacity:1;stroke:#000000;stroke-width:0.80184096;stroke-miterlimit:4;stroke-dasharray:none;stroke-opacity:0"
         d="m 610.88283,604.00097 c -4.82546,-12.02759 -14.2743,-29.64122 -23.55844,-43.91545 l -8.6337,-13.27417 v -25.55781 c 0,-14.0568 -0.26591,-44.86788 -0.59091,-68.46907 l -0.59091,-42.91126 h 19.746 19.746 l 0.012,14.47769 c 0.0169,20.39086 -1.81334,140.26299 -2.53209,165.84059 l -0.59818,21.28648 z"
         id="path5500"
         inkscape:connector-curvature="0" />
      <path
         style="opacity:1;fill:#ffffff;fill-opacity:1;stroke:#000000;stroke-width:0.80184096;stroke-miterlimit:4;stroke-dasharray:none;stroke-opacity:0"
         d="m 482.02431,484.78965 c -19.03776,-6.80622 -18.54156,-6.45804 -17.88664,-12.55103 0.28969,-2.69507 0.77957,-17.82982 1.08862,-33.63277 l 0.5619,-28.73264 h 16.80467 16.80467 v 33.27562 c 0,35.44101 -0.52546,46.96313 -2.13534,46.8228 -0.54061,-0.0471 -7.39766,-2.37901 -15.23788,-5.18198 z"
         id="path5502"
         inkscape:connector-curvature="0" />
    </g>
  </g>
</svg>
