<?xml version="1.0" encoding="UTF-8" standalone="no"?>
<svg
   xmlns:dc="http://purl.org/dc/elements/1.1/"
   xmlns:cc="http://creativecommons.org/ns#"
   xmlns:rdf="http://www.w3.org/1999/02/22-rdf-syntax-ns#"
   xmlns:svg="http://www.w3.org/2000/svg"
   xmlns="http://www.w3.org/2000/svg"
   id="svg21862"
   version="1.1"
   viewBox="0 0 275.94424 78.271629"
   height="78.271629mm"
   width="275.94424mm">
  <defs
     id="defs21856" />
  <metadata
     id="metadata21859">
    <rdf:RDF>
      <cc:Work
         rdf:about="">
        <dc:format>image/svg+xml</dc:format>
        <dc:type
           rdf:resource="http://purl.org/dc/dcmitype/StillImage" />
        <dc:title></dc:title>
      </cc:Work>
    </rdf:RDF>
  </metadata>
  <g
     transform="translate(-0.36716123,-37.518146)"
     id="layer1">
    <g
       style="display:inline;fill:#ffffff"
       transform="matrix(0.45988033,0,0,0.45988033,-4.139666,33.241259)"
       id="g5844">
      <g
         style="fill:#ffffff"
         id="logo">
        <g
           style="fill:#ffffff"
           id="toga">
          <path
             style="fill:#ffffff"
             class="st0"
             d="m 219,9.4 c -50.5,0 -91.9,33.1 -99.2,85 -7.3,51.9 24.8,85 75.3,85 50.5,0 91.9,-33.1 99.2,-85 7.3,-51.9 -24.8,-85 -75.3,-85 z m 26.5,126.1 c -23.4,0 -36.2,-16.9 -33,-40 3.3,-23.2 20.9,-40 44.3,-40 15.2,0 25.9,7.2 30.7,18.6 0,0 0,0.1 0,0.1 -4.3,-5.8 -11.4,-9.2 -20.6,-9.2 -17.8,0 -31.3,12.9 -33.8,30.6 -2.5,17.7 7.4,30.6 25.2,30.6 9.1,0 17.1,-3.4 23.1,-9.1 0,0.1 -0.1,0.2 -0.1,0.3 -8.1,11 -20.7,18.1 -35.8,18.1 z M 288,86.6 c -0.9,-0.3 -1.8,-0.4 -2.9,-0.4 -5.3,0 -9.4,3.8 -10.1,9.1 -0.7,5.3 2.2,9.1 7.6,9.1 1.1,0 2.1,-0.2 3,-0.4 -0.4,1.6 -0.8,3.2 -1.3,4.7 -2.9,2 -6.4,3.1 -10.3,3.1 -9.7,0 -15,-7 -13.7,-16.6 1.3,-9.6 8.7,-16.6 18.3,-16.6 3.9,0 7.1,1.2 9.5,3.2 0,1.7 0,3.2 -0.1,4.8 z m -76.6,77.3 c -40,0 -62.2,-28.9 -56.6,-68.6 5.6,-39.7 35.8,-68.6 75.9,-68.6 24.3,0 42,10.7 50.9,28 -8.4,-11.8 -22.4,-18.9 -40.8,-18.9 -34.7,0 -60.9,25 -65.7,59.4 -4.8,34.4 14.3,59.5 49,59.5 18.4,0 34.4,-7.1 46.1,-18.8 -13.8,17.3 -34.4,28 -58.8,28 z"
             id="path5820" />
          <path
             style="fill:#ffffff"
             class="st1"
             d="m 56.5,175.2 h 11 c 0,0 5.7,-0.7 6.6,-6.6 L 75,162.7 91.6,45 l 29,-0.2 h 11 c 0,0 5.7,-0.7 6.6,-6.6 l 0.9,-5.9 3,-18.7 H 14.1 L 9.8,45 H 56 L 37.7,175.2 h 18.8"
             id="path5822" />
          <path
             style="fill:#ffffff"
             class="st1"
             d="m 548.2,110.9 h -9.1 -24.5 l 26.8,-50.4 c 0,0 10.1,38.4 11.7,44.1 2,6.8 -4.9,6.3 -4.9,6.3 m 61.3,58 c -1.6,-5.6 -2.4,-8 -2.4,-8 L 563.8,13.4 h -29.5 l -92.7,161.8 24.5,-0.1 h 8 c 0,0 6.3,1.3 11.8,-9.2 4.3,-8.1 13.3,-24.8 13.3,-24.8 H 562 l 9.1,34.1 h 27.6 5.8 c 0.1,0 6.9,0.4 5,-6.3"
             id="path5824" />
          <path
             style="fill:#ffffff"
             class="st1"
             d="m 414.7,131.8 2.5,-20.5 h -29 l 4.6,-32.9 h 63.3 l -8.9,65 c 0,0 -0.8,4.8 -1.9,12 -1.1,7.2 -3.6,9.4 -6.6,10.9 -2.7,1.3 -6.8,2.9 -6.8,2.9 0,0 -26.3,10.3 -57.4,10.3 -55.2,0 -79.4,-38.8 -75.9,-82.6 3.5,-43.8 45.4,-87.6 96.2,-87.6 50.8,0 67,23 67,23 0,0 -20.8,15.5 -25.1,19.7 -6.1,6.1 -8.8,2.7 -8.8,2.7 l -4.5,-4 C 417.8,46.4 409.5,42 396.9,42 c -39.3,0 -56.6,25.9 -61.2,55.2 -4.5,29.3 17.8,49.3 40.9,49.3 13.4,0 23.8,-2.5 30.1,-5 7.3,-3 8,-9.7 8,-9.7 v 0"
             id="path5826" />
        </g>
      </g>
      <g
         style="display:none;fill:#ffffff"
         id="guias_visuales"
         class="st2">
        <path
           style="display:inline;fill:#ffffff"
           class="st3"
           d="m 9.8,106.2 c 0,-50.5 -33.1,-91.9 -85,-99.2 -51.9,-7.3 -85,24.8 -85,75.3 0,50.5 33.1,91.9 85,99.2 51.9,7.3 85,-24.8 85,-75.3 z m -126,26.5 c 0,-23.4 16.9,-36.2 40,-33 23.2,3.3 40,20.9 40,44.3 0,15.2 -7.2,25.9 -18.6,30.7 0,0 -0.1,0 -0.1,0 5.8,-4.3 9.2,-11.4 9.2,-20.6 0,-17.8 -12.9,-31.3 -30.6,-33.8 -17.7,-2.5 -30.6,7.4 -30.6,25.2 0,9.1 3.4,17.1 9.1,23.1 -0.1,0 -0.2,-0.1 -0.3,-0.1 -11.1,-8.1 -18.1,-20.8 -18.1,-35.8 z m 48.8,42.5 c 0.3,-0.9 0.4,-1.8 0.4,-2.9 0,-5.3 -3.8,-9.4 -9.1,-10.1 -5.3,-0.7 -9.1,2.2 -9.1,7.6 0,1.1 0.2,2.1 0.4,3 -1.6,-0.4 -3.2,-0.8 -4.7,-1.3 -2,-2.9 -3.1,-6.4 -3.1,-10.3 0,-9.7 7,-15 16.6,-13.7 9.6,1.3 16.6,8.7 16.6,18.3 0,3.9 -1.2,7.1 -3.2,9.5 -1.7,-0.1 -3.2,-0.1 -4.8,-0.1 z m -77.3,-76.6 c 0,-40 28.9,-62.2 68.6,-56.6 39.7,5.6 68.6,35.8 68.6,75.9 0,24.3 -10.7,42 -28,50.9 11.8,-8.4 18.9,-22.4 18.9,-40.8 0,-34.7 -25,-60.9 -59.4,-65.7 -34.4,-4.8 -59.5,14.3 -59.5,49 0,18.4 7.1,34.4 18.8,46.1 -17.3,-13.8 -28,-34.5 -28,-58.8 z"
           id="path5829" />
        <path
           style="display:inline;fill:#ffffff"
           class="st3"
           d="m 779.8,106.2 c 0,-50.5 -33.1,-91.9 -85,-99.2 -51.9,-7.3 -85,24.8 -85,75.3 0,50.5 33.1,91.9 85,99.2 51.9,7.3 85,-24.8 85,-75.3 z m -126,26.5 c 0,-23.4 16.9,-36.2 40,-33 23.2,3.3 40,20.9 40,44.3 0,15.2 -7.2,25.9 -18.6,30.7 0,0 -0.1,0 -0.1,0 5.8,-4.3 9.2,-11.4 9.2,-20.6 0,-17.8 -12.9,-31.3 -30.6,-33.8 -17.7,-2.5 -30.6,7.4 -30.6,25.2 0,9.1 3.4,17.1 9.1,23.1 -0.1,0 -0.2,-0.1 -0.3,-0.1 -11.1,-8.1 -18.1,-20.8 -18.1,-35.8 z m 48.8,42.5 c 0.3,-0.9 0.4,-1.8 0.4,-2.9 0,-5.3 -3.8,-9.4 -9.1,-10.1 -5.3,-0.7 -9.1,2.2 -9.1,7.6 0,1.1 0.2,2.1 0.4,3 -1.6,-0.4 -3.2,-0.8 -4.7,-1.3 -2,-2.9 -3.1,-6.4 -3.1,-10.3 0,-9.7 7,-15 16.6,-13.7 9.6,1.3 16.6,8.7 16.6,18.3 0,3.9 -1.2,7.1 -3.2,9.5 -1.7,-0.1 -3.2,-0.1 -4.8,-0.1 z M 625.3,98.6 c 0,-40 28.9,-62.2 68.6,-56.6 39.7,5.6 68.6,35.8 68.6,75.9 0,24.3 -10.7,42 -28,50.9 11.8,-8.4 18.9,-22.4 18.9,-40.8 0,-34.7 -25,-60.9 -59.4,-65.7 -34.4,-4.8 -59.5,14.3 -59.5,49 0,18.4 7.1,34.4 18.8,46.1 -17.3,-13.8 -28,-34.5 -28,-58.8 z"
           id="path5831" />
        <path
           style="display:inline;fill:#ffffff"
           class="st3"
           d="m 585.2,175.3 c -50.5,0 -91.9,33.1 -99.2,85 -7.3,51.9 24.8,85 75.3,85 50.5,0 91.9,-33.1 99.2,-85 7.3,-51.9 -24.8,-85 -75.3,-85 z m 26.5,126 c -23.4,0 -36.2,-16.9 -33,-40 3.3,-23.2 20.9,-40 44.3,-40 15.2,0 25.9,7.2 30.7,18.6 0,0 0,0.1 0,0.1 -4.3,-5.8 -11.4,-9.2 -20.6,-9.2 -17.8,0 -31.3,12.9 -33.8,30.6 -2.5,17.7 7.4,30.6 25.2,30.6 9.1,0 17.1,-3.4 23.1,-9.1 0,0.1 -0.1,0.2 -0.1,0.3 -8.1,11.1 -20.8,18.1 -35.8,18.1 z m 42.5,-48.8 c -0.9,-0.3 -1.8,-0.4 -2.9,-0.4 -5.3,0 -9.4,3.8 -10.1,9.1 -0.7,5.3 2.2,9.1 7.6,9.1 1.1,0 2.1,-0.2 3,-0.4 -0.4,1.6 -0.8,3.2 -1.3,4.7 -2.9,2 -6.4,3.1 -10.3,3.1 -9.7,0 -15,-7 -13.7,-16.6 1.3,-9.6 8.7,-16.6 18.3,-16.6 3.9,0 7.1,1.2 9.5,3.2 0,1.6 -0.1,3.2 -0.1,4.8 z m -76.6,77.3 c -40,0 -62.2,-28.9 -56.6,-68.6 5.6,-39.7 35.8,-68.6 75.9,-68.6 24.3,0 42,10.7 50.9,28 -8.4,-11.8 -22.4,-18.9 -40.8,-18.9 -34.7,0 -60.9,25 -65.7,59.4 -4.8,34.4 14.3,59.5 49,59.5 18.4,0 34.4,-7.1 46.1,-18.8 -13.8,17.3 -34.5,28 -58.8,28 z"
           id="path5833" />
        <path
           style="display:inline;fill:#ffffff"
           class="st3"
           d="m 96.1,-156.6 c -50.5,0 -91.9,33.1 -99.2,85 -7.3,51.9 24.8,85 75.3,85 50.5,0 91.9,-33.1 99.2,-85 7.3,-51.8 -24.8,-85 -75.3,-85 z m 26.5,126.1 c -23.4,0 -36.2,-16.9 -33,-40 3.3,-23.2 20.9,-40 44.3,-40 15.2,0 25.9,7.2 30.7,18.6 0,0 0,0.1 0,0.1 -4.3,-5.8 -11.4,-9.2 -20.6,-9.2 -17.8,0 -31.3,12.9 -33.8,30.6 -2.5,17.7 7.4,30.6 25.2,30.6 9.1,0 17.1,-3.4 23.1,-9.1 0,0.1 -0.1,0.2 -0.1,0.3 -8.1,11.1 -20.8,18.1 -35.8,18.1 z m 42.5,-48.8 c -0.9,-0.3 -1.8,-0.4 -2.9,-0.4 -5.3,0 -9.4,3.8 -10.1,9.1 -0.7,5.3 2.2,9.1 7.6,9.1 1.1,0 2.1,-0.2 3,-0.4 -0.4,1.6 -0.8,3.2 -1.3,4.7 -2.9,2 -6.4,3.1 -10.3,3.1 -9.7,0 -15,-7 -13.7,-16.6 1.3,-9.6 8.7,-16.6 18.3,-16.6 3.9,0 7.1,1.2 9.5,3.2 -0.1,1.6 -0.1,3.2 -0.1,4.8 z M 88.5,-2 c -40,0 -62.2,-28.9 -56.6,-68.6 5.6,-39.7 35.8,-68.6 75.9,-68.6 24.3,0 42,10.7 50.9,28 -8.4,-11.8 -22.4,-18.9 -40.8,-18.9 -34.7,0 -60.9,25 -65.7,59.4 -4.8,34.4 14.3,59.5 49,59.5 18.4,0 34.4,-7.1 46.1,-18.8 -13.8,17.3 -34.5,28 -58.8,28 z"
           id="path5835" />
      </g>
    </g>
  </g>
</svg>
